# Wavefront .OBJ file for tesselated shape: goal_new-2 path: C:\Users\ricca\Desktop\comau_racer_obstacle\UR5e\goal_new.SLDPRT

g body_1
v -0.240000 0.195000 1.340000
v -0.240000 0.195000 1.130000
v -0.240000 0.100000 1.130000
v -0.240000 0.100000 1.340000
v -0.240000 0.100000 1.340000
v -0.240000 0.100000 1.130000
v -0.090000 0.100000 1.130000
v -0.090000 0.100000 1.340000
v -0.090000 0.100000 1.340000
v -0.090000 0.100000 1.130000
v -0.090000 0.195000 1.130000
v -0.090000 0.195000 1.340000
v -0.090000 0.195000 1.340000
v -0.090000 0.195000 1.130000
v -0.240000 0.195000 1.130000
v -0.240000 0.195000 1.340000
v -0.090000 0.100000 1.340000
v -0.090000 0.195000 1.340000
v -0.240000 0.195000 1.340000
v -0.240000 0.100000 1.340000
v -0.090000 0.100000 1.130000
v -0.240000 0.100000 1.130000
v -0.240000 0.195000 1.130000
v -0.090000 0.195000 1.130000
vn -1.000 0.000 0.000
vn -1.000 0.000 0.000
vn -1.000 0.000 0.000
vn -1.000 0.000 0.000
vn 0.000 -1.000 0.000
vn 0.000 -1.000 0.000
vn 0.000 -1.000 0.000
vn 0.000 -1.000 0.000
vn 1.000 0.000 0.000
vn 1.000 0.000 0.000
vn 1.000 0.000 0.000
vn 1.000 0.000 0.000
vn 0.000 1.000 0.000
vn 0.000 1.000 0.000
vn 0.000 1.000 0.000
vn 0.000 1.000 0.000
vn 0.000 0.000 1.000
vn 0.000 0.000 1.000
vn 0.000 0.000 1.000
vn 0.000 0.000 1.000
vn 0.000 0.000 -1.000
vn 0.000 0.000 -1.000
vn 0.000 0.000 -1.000
vn 0.000 0.000 -1.000
vt 0.0000 0.0000 0
vt 0.2100 0.0000 0
vt 0.2100 -0.0950 0
vt 0.0000 -0.0950 0
vt 0.0000 -0.1500 0
vt -0.2100 -0.1500 0
vt -0.2100 0.0000 0
vt 0.0000 0.0000 0
vt 0.0950 0.0000 0
vt 0.0950 -0.2100 0
vt 0.0000 -0.2100 0
vt 0.0000 0.0000 0
vt 0.0000 0.0000 0
vt 0.0000 -0.2100 0
vt -0.1500 -0.2100 0
vt -0.1500 0.0000 0
vt 0.0900 0.1000 0
vt 0.0900 0.1950 0
vt 0.2400 0.1950 0
vt 0.2400 0.1000 0
vt 0.0900 0.1000 0
vt 0.2400 0.1000 0
vt 0.2400 0.1950 0
vt 0.0900 0.1950 0
f 1/1/1 3/3/3 4/4/4
f 3/3/3 1/1/1 2/2/2
f 5/5/5 7/7/7 8/8/8
f 7/7/7 5/5/5 6/6/6
f 9/9/9 11/11/11 12/12/12
f 11/11/11 9/9/9 10/10/10
f 15/15/15 13/13/13 14/14/14
f 13/13/13 15/15/15 16/16/16
f 17/17/17 19/19/19 20/20/20
f 19/19/19 17/17/17 18/18/18
f 23/23/23 21/21/21 22/22/22
f 21/21/21 23/23/23 24/24/24
g body_2
v -0.050000 0.105000 0.005000
v -0.050000 0.105000 0.230000
v 0.300000 0.105000 0.230000
v 0.300000 0.105000 0.005000
v 0.300000 0.105000 0.005000
v 0.300000 0.350000 0.005000
v -0.050000 0.350000 0.005000
v -0.050000 0.105000 0.005000
v 0.300000 0.010000 0.230000
v 0.300000 0.105000 0.230000
v -0.050000 0.105000 0.230000
v -0.050000 0.010000 0.230000
v 0.300000 0.010000 0.695000
v 0.300000 0.010000 0.230000
v -0.050000 0.010000 0.230000
v -0.050000 0.010000 0.695000
v -0.050000 -0.350000 0.695000
v 0.300000 -0.350000 0.695000
v 0.300000 0.010000 0.695000
v -0.050000 0.010000 0.695000
v 0.300000 -0.350000 1.045000
v 0.300000 0.350000 1.045000
v 0.300000 0.010000 0.695000
v 0.300000 0.105000 0.230000
v 0.300000 0.010000 0.230000
v 0.300000 0.350000 0.005000
v 0.300000 0.105000 0.005000
v 0.300000 -0.350000 0.695000
v -0.050000 -0.350000 1.045000
v -0.050000 -0.350000 0.695000
v -0.050000 0.010000 0.695000
v -0.050000 0.350000 0.005000
v -0.050000 0.350000 1.045000
v -0.050000 0.105000 0.230000
v -0.050000 0.250000 1.045000
v -0.050000 0.025000 1.045000
v -0.050000 0.010000 0.230000
v -0.050000 0.105000 0.005000
v 0.300000 0.350000 1.045000
v 0.300000 -0.350000 1.045000
v 0.220000 0.025000 1.045000
v -0.050000 -0.350000 1.045000
v -0.050000 0.025000 1.045000
v -0.050000 0.350000 1.045000
v 0.220000 0.250000 1.045000
v -0.050000 0.250000 1.045000
v -0.070000 0.250000 1.045000
v -0.070000 0.025000 1.045000
v -0.050000 0.025000 1.045000
v -0.050000 0.250000 1.045000
v 0.220000 0.250000 1.130000
v -0.070000 0.250000 1.130000
v -0.050000 0.250000 1.045000
v -0.070000 0.250000 1.045000
v 0.220000 0.250000 1.045000
v 0.220000 0.025000 1.130000
v 0.220000 0.025000 1.045000
v -0.050000 0.025000 1.045000
v -0.070000 0.025000 1.130000
v -0.070000 0.025000 1.045000
v 0.220000 0.025000 1.045000
v 0.220000 0.025000 1.130000
v 0.220000 0.250000 1.130000
v 0.220000 0.250000 1.045000
v -0.070000 0.250000 1.045000
v -0.070000 0.250000 1.130000
v -0.070000 0.025000 1.130000
v -0.070000 0.025000 1.045000
v 0.350000 0.350000 1.130000
v 0.220000 0.250000 1.130000
v 0.220000 0.025000 1.130000
v -0.350000 0.350000 1.130000
v -0.070000 0.250000 1.130000
v -0.350000 -0.350000 1.130000
v -0.070000 0.025000 1.130000
v 0.350000 -0.350000 1.130000
v 0.350000 0.350000 1.130000
v 0.300000 0.350000 1.045000
v -0.050000 0.350000 1.045000
v 0.350000 0.350000 0.000000
v 0.300000 0.350000 0.005000
v -0.350000 0.350000 0.000000
v -0.050000 0.350000 0.005000
v -0.350000 0.350000 1.130000
v 0.350000 -0.350000 1.130000
v -0.350000 -0.350000 1.130000
v -0.050000 -0.350000 1.045000
v -0.350000 -0.350000 0.000000
v -0.050000 -0.350000 0.695000
v 0.350000 -0.350000 0.000000
v 0.300000 -0.350000 0.695000
v 0.300000 -0.350000 1.045000
v 0.350000 -0.350000 1.130000
v 0.350000 -0.350000 0.000000
v 0.350000 0.350000 0.000000
v 0.350000 0.350000 1.130000
v -0.350000 0.350000 1.130000
v -0.350000 0.350000 0.000000
v -0.350000 -0.350000 0.000000
v -0.350000 -0.350000 1.130000
v 0.350000 0.350000 0.000000
v 0.350000 -0.350000 0.000000
v -0.350000 -0.350000 0.000000
v -0.350000 0.350000 0.000000
vn 0.000 1.000 0.000
vn 0.000 1.000 0.000
vn 0.000 1.000 0.000
vn 0.000 1.000 0.000
vn 0.000 0.000 1.000
vn 0.000 0.000 1.000
vn 0.000 0.000 1.000
vn 0.000 0.000 1.000
vn 0.000 0.000 1.000
vn 0.000 0.000 1.000
vn 0.000 0.000 1.000
vn 0.000 0.000 1.000
vn 0.000 1.000 0.000
vn 0.000 1.000 0.000
vn 0.000 1.000 0.000
vn 0.000 1.000 0.000
vn 0.000 0.000 1.000
vn 0.000 0.000 1.000
vn 0.000 0.000 1.000
vn 0.000 0.000 1.000
vn -1.000 0.000 0.000
vn -1.000 0.000 0.000
vn -1.000 0.000 0.000
vn -1.000 0.000 0.000
vn -1.000 0.000 0.000
vn -1.000 0.000 0.000
vn -1.000 0.000 0.000
vn -1.000 0.000 0.000
vn 1.000 0.000 0.000
vn 1.000 0.000 0.000
vn 1.000 0.000 0.000
vn 1.000 0.000 0.000
vn 1.000 0.000 0.000
vn 1.000 0.000 0.000
vn 1.000 0.000 0.000
vn 1.000 0.000 0.000
vn 1.000 0.000 0.000
vn 1.000 0.000 0.000
vn 0.000 0.000 -1.000
vn 0.000 0.000 -1.000
vn 0.000 0.000 -1.000
vn 0.000 0.000 -1.000
vn 0.000 0.000 -1.000
vn 0.000 0.000 -1.000
vn 0.000 0.000 -1.000
vn 0.000 0.000 -1.000
vn 0.000 0.000 1.000
vn 0.000 0.000 1.000
vn 0.000 0.000 1.000
vn 0.000 0.000 1.000
vn 0.000 -1.000 0.000
vn 0.000 -1.000 0.000
vn 0.000 -1.000 0.000
vn 0.000 -1.000 0.000
vn 0.000 -1.000 0.000
vn 0.000 1.000 0.000
vn 0.000 1.000 0.000
vn 0.000 1.000 0.000
vn 0.000 1.000 0.000
vn 0.000 1.000 0.000
vn -1.000 0.000 0.000
vn -1.000 0.000 0.000
vn -1.000 0.000 0.000
vn -1.000 0.000 0.000
vn 1.000 0.000 0.000
vn 1.000 0.000 0.000
vn 1.000 0.000 0.000
vn 1.000 0.000 0.000
vn 0.000 0.000 1.000
vn 0.000 0.000 1.000
vn 0.000 0.000 1.000
vn 0.000 0.000 1.000
vn 0.000 0.000 1.000
vn 0.000 0.000 1.000
vn 0.000 0.000 1.000
vn 0.000 0.000 1.000
vn 0.000 1.000 0.000
vn 0.000 1.000 0.000
vn 0.000 1.000 0.000
vn 0.000 1.000 0.000
vn 0.000 1.000 0.000
vn 0.000 1.000 0.000
vn 0.000 1.000 0.000
vn 0.000 1.000 0.000
vn 0.000 -1.000 0.000
vn 0.000 -1.000 0.000
vn 0.000 -1.000 0.000
vn 0.000 -1.000 0.000
vn 0.000 -1.000 0.000
vn 0.000 -1.000 0.000
vn 0.000 -1.000 0.000
vn 0.000 -1.000 0.000
vn 1.000 0.000 0.000
vn 1.000 0.000 0.000
vn 1.000 0.000 0.000
vn 1.000 0.000 0.000
vn -1.000 0.000 0.000
vn -1.000 0.000 0.000
vn -1.000 0.000 0.000
vn -1.000 0.000 0.000
vn 0.000 0.000 -1.000
vn 0.000 0.000 -1.000
vn 0.000 0.000 -1.000
vn 0.000 0.000 -1.000
vt 0.0050 -0.0500 0
vt 0.2300 -0.0500 0
vt 0.2300 0.3000 0
vt 0.0050 0.3000 0
vt 0.0000 0.0000 0
vt 0.0000 0.2450 0
vt 0.3500 0.2450 0
vt 0.3500 0.0000 0
vt 0.0000 0.0000 0
vt 0.0000 0.0950 0
vt 0.3500 0.0950 0
vt 0.3500 0.0000 0
vt -0.6950 0.3000 0
vt -0.2300 0.3000 0
vt -0.2300 -0.0500 0
vt -0.6950 -0.0500 0
vt 0.3500 0.0030 0
vt 0.0000 0.0030 0
vt 0.0000 0.3630 0
vt 0.3500 0.3630 0
vt 0.0000 -0.4550 0
vt 0.0000 0.2450 0
vt 0.3500 -0.0950 0
vt 0.8150 0.0000 0
vt 0.8150 -0.0950 0
vt 1.0400 0.2450 0
vt 1.0400 0.0000 0
vt 0.3500 -0.4550 0
vt 0.0000 -0.4550 0
vt -0.3500 -0.4550 0
vt -0.3500 -0.0950 0
vt -1.0400 0.2450 0
vt 0.0000 0.2450 0
vt -0.8150 0.0000 0
vt 0.0000 0.1450 0
vt 0.0000 -0.0800 0
vt -0.8150 -0.0950 0
vt -1.0400 0.0000 0
vt 0.0000 0.2450 0
vt 0.0000 -0.4550 0
vt -0.0800 -0.0800 0
vt -0.3500 -0.4550 0
vt -0.3500 -0.0800 0
vt -0.3500 0.2450 0
vt -0.0800 0.1450 0
vt -0.3500 0.1450 0
vt 0.0700 0.2500 0
vt 0.0700 0.0250 0
vt 0.0500 0.0250 0
vt 0.0500 0.2500 0
vt 0.0000 -0.2350 0
vt 0.2900 -0.2350 0
vt 0.2700 -0.3200 0
vt 0.2900 -0.3200 0
vt 0.0000 -0.3200 0
vt 0.2350 0.0000 0
vt 0.3200 0.0000 0
vt 0.3200 -0.2700 0
vt 0.2350 -0.2900 0
vt 0.3200 -0.2900 0
vt -0.2250 -0.3200 0
vt -0.2250 -0.2350 0
vt 0.0000 -0.2350 0
vt 0.0000 -0.3200 0
vt -0.3200 0.0000 0
vt -0.2350 0.0000 0
vt -0.2350 -0.2250 0
vt -0.3200 -0.2250 0
vt 0.3500 0.3500 0
vt 0.2200 0.2500 0
vt 0.2200 0.0250 0
vt -0.3500 0.3500 0
vt -0.0700 0.2500 0
vt -0.3500 -0.3500 0
vt -0.0700 0.0250 0
vt 0.3500 -0.3500 0
vt 0.0000 0.7000 0
vt 0.0850 0.6500 0
vt 0.0850 0.3000 0
vt 1.1300 0.7000 0
vt 1.1250 0.6500 0
vt 1.1300 0.0000 0
vt 1.1250 0.3000 0
vt 0.0000 0.0000 0
vt 0.0000 0.7000 0
vt 0.0000 0.0000 0
vt -0.0850 0.3000 0
vt -1.1300 0.0000 0
vt -0.4350 0.3000 0
vt -1.1300 0.7000 0
vt -0.4350 0.6500 0
vt -0.0850 0.6500 0
vt 0.7000 0.0000 0
vt 0.7000 -1.1300 0
vt 0.0000 -1.1300 0
vt 0.0000 0.0000 0
vt 0.0000 0.0000 0
vt 0.0000 -1.1300 0
vt -0.7000 -1.1300 0
vt -0.7000 0.0000 0
vt 0.3500 0.3500 0
vt 0.3500 -0.3500 0
vt -0.3500 -0.3500 0
vt -0.3500 0.3500 0
f 25/25/25 27/27/27 28/28/28
f 27/27/27 25/25/25 26/26/26
f 117/117/117 119/119/119 120/120/120
f 119/119/119 117/117/117 118/118/118
f 104/104/104 102/102/102 101/101/101
f 106/106/106 103/103/103 107/107/107
f 104/104/104 107/107/107 105/105/105
f 107/107/107 104/104/104 106/106/106
f 103/103/103 101/101/101 102/102/102
f 102/102/102 104/104/104 105/105/105
f 103/103/103 106/106/106 108/108/108
f 101/101/101 103/103/103 108/108/108
f 123/123/123 121/121/121 122/122/122
f 121/121/121 123/123/123 124/124/124
f 113/113/113 110/110/110 112/112/112
f 109/109/109 115/115/115 114/114/114
f 109/109/109 111/111/111 116/116/116
f 111/111/111 109/109/109 110/110/110
f 114/114/114 113/113/113 112/112/112
f 115/115/115 109/109/109 116/116/116
f 113/113/113 114/114/114 115/115/115
f 110/110/110 113/113/113 111/111/111
f 99/99/99 100/100/100 95/95/95
f 100/100/100 99/99/99 98/98/98
f 96/96/96 99/99/99 97/97/97
f 97/97/97 93/93/93 96/96/96
f 99/99/99 96/96/96 98/98/98
f 93/93/93 95/95/95 100/100/100
f 93/93/93 97/97/97 94/94/94
f 95/95/95 93/93/93 94/94/94
f 125/125/125 127/127/127 128/128/128
f 127/127/127 125/125/125 126/126/126
f 58/58/58 56/56/56 57/57/57
f 59/59/59 55/55/55 57/57/57
f 55/55/55 58/58/58 57/57/57
f 60/60/60 55/55/55 59/59/59
f 56/56/56 58/58/58 62/62/62
f 53/53/53 55/55/55 60/60/60
f 58/58/58 55/55/55 61/61/61
f 55/55/55 53/53/53 54/54/54
f 31/31/31 29/29/29 30/30/30
f 29/29/29 31/31/31 32/32/32
f 48/48/48 50/50/50 51/51/51
f 50/50/50 48/48/48 46/46/46
f 45/45/45 47/47/47 52/52/52
f 48/48/48 47/47/47 46/46/46
f 47/47/47 45/45/45 46/46/46
f 47/47/47 48/48/48 49/49/49
f 65/65/65 66/66/66 67/67/67
f 63/63/63 65/65/65 69/69/69
f 66/66/66 65/65/65 64/64/64
f 69/69/69 68/68/68 63/63/63
f 65/65/65 63/63/63 64/64/64
f 68/68/68 69/69/69 70/70/70
f 33/33/33 35/35/35 36/36/36
f 35/35/35 33/33/33 34/34/34
f 37/37/37 39/39/39 40/40/40
f 39/39/39 37/37/37 38/38/38
f 43/43/43 41/41/41 42/42/42
f 41/41/41 43/43/43 44/44/44
f 71/71/71 73/73/73 74/74/74
f 73/73/73 71/71/71 72/72/72
f 87/87/87 85/85/85 86/86/86
f 85/85/85 87/87/87 88/88/88
f 77/77/77 76/76/76 78/78/78
f 77/77/77 75/75/75 76/76/76
f 75/75/75 77/77/77 79/79/79
f 89/89/89 91/91/91 92/92/92
f 91/91/91 89/89/89 90/90/90
f 83/83/83 82/82/82 84/84/84
f 80/80/80 82/82/82 83/83/83
f 82/82/82 80/80/80 81/81/81
g body_3
v 0.240000 0.005000 1.385000
v 0.240000 0.005000 1.130000
v 0.240000 0.270000 1.130000
v 0.240000 0.270000 1.385000
v 0.240000 0.270000 1.385000
v 0.240000 0.270000 1.130000
v -0.090000 0.270000 1.130000
v -0.090000 0.270000 1.385000
v -0.090000 0.270000 1.385000
v -0.090000 0.270000 1.130000
v -0.090000 0.005000 1.130000
v -0.090000 0.005000 1.385000
v -0.090000 0.005000 1.385000
v -0.090000 0.005000 1.130000
v 0.240000 0.005000 1.130000
v 0.240000 0.005000 1.385000
v -0.090000 0.005000 1.385000
v 0.240000 0.005000 1.385000
v 0.240000 0.270000 1.385000
v -0.090000 0.270000 1.385000
v 0.240000 0.270000 1.130000
v 0.220000 0.250000 1.130000
v -0.070000 0.250000 1.130000
v 0.240000 0.005000 1.130000
v 0.220000 0.025000 1.130000
v -0.090000 0.005000 1.130000
v -0.070000 0.025000 1.130000
v -0.090000 0.270000 1.130000
v 0.220000 0.250000 1.130000
v 0.220000 0.025000 1.130000
v 0.220000 0.025000 1.365000
v 0.220000 0.250000 1.365000
v -0.070000 0.250000 1.130000
v 0.220000 0.250000 1.130000
v 0.220000 0.250000 1.365000
v -0.070000 0.250000 1.365000
v -0.070000 0.025000 1.130000
v -0.070000 0.250000 1.130000
v -0.070000 0.250000 1.365000
v -0.070000 0.025000 1.365000
v 0.220000 0.025000 1.130000
v -0.070000 0.025000 1.130000
v -0.070000 0.025000 1.365000
v 0.220000 0.025000 1.365000
v -0.070000 0.250000 1.365000
v 0.220000 0.250000 1.365000
v 0.220000 0.025000 1.365000
v -0.070000 0.025000 1.365000
vn 1.000 0.000 0.000
vn 1.000 0.000 0.000
vn 1.000 0.000 0.000
vn 1.000 0.000 0.000
vn 0.000 1.000 0.000
vn 0.000 1.000 0.000
vn 0.000 1.000 0.000
vn 0.000 1.000 0.000
vn -1.000 0.000 0.000
vn -1.000 0.000 0.000
vn -1.000 0.000 0.000
vn -1.000 0.000 0.000
vn 0.000 -1.000 0.000
vn 0.000 -1.000 0.000
vn 0.000 -1.000 0.000
vn 0.000 -1.000 0.000
vn 0.000 0.000 1.000
vn 0.000 0.000 1.000
vn 0.000 0.000 1.000
vn 0.000 0.000 1.000
vn 0.000 0.000 -1.000
vn 0.000 0.000 -1.000
vn 0.000 0.000 -1.000
vn 0.000 0.000 -1.000
vn 0.000 0.000 -1.000
vn 0.000 0.000 -1.000
vn 0.000 0.000 -1.000
vn 0.000 0.000 -1.000
vn -1.000 0.000 0.000
vn -1.000 0.000 0.000
vn -1.000 0.000 0.000
vn -1.000 0.000 0.000
vn 0.000 -1.000 0.000
vn 0.000 -1.000 0.000
vn 0.000 -1.000 0.000
vn 0.000 -1.000 0.000
vn 1.000 0.000 0.000
vn 1.000 0.000 0.000
vn 1.000 0.000 0.000
vn 1.000 0.000 0.000
vn 0.000 1.000 0.000
vn 0.000 1.000 0.000
vn 0.000 1.000 0.000
vn 0.000 1.000 0.000
vn 0.000 0.000 -1.000
vn 0.000 0.000 -1.000
vn 0.000 0.000 -1.000
vn 0.000 0.000 -1.000
vt 0.2650 0.0000 0
vt 0.2650 -0.2550 0
vt 0.0000 -0.2550 0
vt 0.0000 0.0000 0
vt 0.0000 0.3300 0
vt 0.2550 0.3300 0
vt 0.2550 0.0000 0
vt 0.0000 0.0000 0
vt 0.0000 0.0000 0
vt 0.0000 -0.2550 0
vt -0.2650 -0.2550 0
vt -0.2650 0.0000 0
vt 0.0000 0.0000 0
vt -0.2550 0.0000 0
vt -0.2550 0.3300 0
vt 0.0000 0.3300 0
vt -0.0900 0.0050 0
vt 0.2400 0.0050 0
vt 0.2400 0.2700 0
vt -0.0900 0.2700 0
vt 0.2400 0.2700 0
vt 0.2200 0.2500 0
vt -0.0700 0.2500 0
vt 0.2400 0.0050 0
vt 0.2200 0.0250 0
vt -0.0900 0.0050 0
vt -0.0700 0.0250 0
vt -0.0900 0.2700 0
vt 0.0000 -0.2350 0
vt -0.2250 -0.2350 0
vt -0.2250 0.0000 0
vt 0.0000 0.0000 0
vt 0.2900 -0.2350 0
vt 0.0000 -0.2350 0
vt 0.0000 0.0000 0
vt 0.2900 0.0000 0
vt -0.2350 -0.2250 0
vt -0.2350 0.0000 0
vt 0.0000 0.0000 0
vt 0.0000 -0.2250 0
vt 0.2350 0.0000 0
vt 0.2350 -0.2900 0
vt 0.0000 -0.2900 0
vt 0.0000 0.0000 0
vt 0.0700 0.2500 0
vt -0.2200 0.2500 0
vt -0.2200 0.0250 0
vt 0.0700 0.0250 0
f 131/131/131 129/129/129 130/130/130
f 129/129/129 131/131/131 132/132/132
f 133/133/133 135/135/135 136/136/136
f 135/135/135 133/133/133 134/134/134
f 137/137/137 139/139/139 140/140/140
f 139/139/139 137/137/137 138/138/138
f 141/141/141 143/143/143 144/144/144
f 143/143/143 141/141/141 142/142/142
f 145/145/145 147/147/147 148/148/148
f 147/147/147 145/145/145 146/146/146
f 150/150/150 152/152/152 153/153/153
f 152/152/152 150/150/150 149/149/149
f 154/154/154 151/151/151 155/155/155
f 154/154/154 153/153/153 152/152/152
f 149/149/149 151/151/151 156/156/156
f 151/151/151 154/154/154 156/156/156
f 153/153/153 154/154/154 155/155/155
f 151/151/151 149/149/149 150/150/150
f 159/159/159 157/157/157 158/158/158
f 157/157/157 159/159/159 160/160/160
f 161/161/161 163/163/163 164/164/164
f 163/163/163 161/161/161 162/162/162
f 167/167/167 165/165/165 166/166/166
f 165/165/165 167/167/167 168/168/168
f 169/169/169 171/171/171 172/172/172
f 171/171/171 169/169/169 170/170/170
f 173/173/173 175/175/175 176/176/176
f 175/175/175 173/173/173 174/174/174
