# Wavefront .OBJ file for tesselated shape: start_new-1 path: C:\Users\ricca\Desktop\comau_racer_obstacle\UR5e\start_new.SLDPRT

g body_1
v 0.069500 -0.228000 0.760000
v 0.069500 -0.228000 0.610000
v 0.069500 0.228000 0.610000
v 0.069500 0.228000 0.760000
v 0.069500 0.228000 0.760000
v 0.069500 0.228000 0.610000
v -0.045500 0.228000 0.610000
v -0.045500 0.228000 0.760000
v -0.045500 0.228000 0.760000
v -0.045500 0.228000 0.610000
v -0.045500 -0.228000 0.610000
v -0.045500 -0.228000 0.760000
v -0.045500 -0.228000 0.760000
v -0.045500 -0.228000 0.610000
v 0.069500 -0.228000 0.610000
v 0.069500 -0.228000 0.760000
v -0.045500 -0.228000 0.760000
v 0.069500 -0.228000 0.760000
v 0.069500 0.228000 0.760000
v -0.045500 0.228000 0.760000
v 0.069500 0.228000 0.610000
v 0.069500 -0.228000 0.610000
v -0.045500 -0.228000 0.610000
v -0.045500 0.228000 0.610000
vn 1.000 0.000 0.000
vn 1.000 0.000 0.000
vn 1.000 0.000 0.000
vn 1.000 0.000 0.000
vn 0.000 1.000 0.000
vn 0.000 1.000 0.000
vn 0.000 1.000 0.000
vn 0.000 1.000 0.000
vn -1.000 0.000 0.000
vn -1.000 0.000 0.000
vn -1.000 0.000 0.000
vn -1.000 0.000 0.000
vn 0.000 -1.000 0.000
vn 0.000 -1.000 0.000
vn 0.000 -1.000 0.000
vn 0.000 -1.000 0.000
vn 0.000 0.000 1.000
vn 0.000 0.000 1.000
vn 0.000 0.000 1.000
vn 0.000 0.000 1.000
vn 0.000 0.000 -1.000
vn 0.000 0.000 -1.000
vn 0.000 0.000 -1.000
vn 0.000 0.000 -1.000
vt 0.4560 0.0000 0
vt 0.4560 -0.1500 0
vt 0.0000 -0.1500 0
vt 0.0000 0.0000 0
vt 0.0000 0.1150 0
vt 0.1500 0.1150 0
vt 0.1500 0.0000 0
vt 0.0000 0.0000 0
vt 0.0000 0.0000 0
vt 0.0000 -0.1500 0
vt -0.4560 -0.1500 0
vt -0.4560 0.0000 0
vt 0.0000 0.0000 0
vt -0.1500 0.0000 0
vt -0.1500 0.1150 0
vt 0.0000 0.1150 0
vt -0.0455 -0.2280 0
vt 0.0695 -0.2280 0
vt 0.0695 0.2280 0
vt -0.0455 0.2280 0
vt 0.0695 0.2280 0
vt 0.0695 -0.2280 0
vt -0.0455 -0.2280 0
vt -0.0455 0.2280 0
f 1/1/1 3/3/3 4/4/4
f 3/3/3 1/1/1 2/2/2
f 5/5/5 7/7/7 8/8/8
f 7/7/7 5/5/5 6/6/6
f 9/9/9 11/11/11 12/12/12
f 11/11/11 9/9/9 10/10/10
f 15/15/15 13/13/13 14/14/14
f 13/13/13 15/15/15 16/16/16
f 17/17/17 19/19/19 20/20/20
f 19/19/19 17/17/17 18/18/18
f 23/23/23 21/21/21 22/22/22
f 21/21/21 23/23/23 24/24/24
g body_2
v 0.432500 0.277500 -0.350000
v 0.432500 0.277500 0.000000
v 0.432500 -0.277500 0.000000
v 0.432500 -0.277500 -0.350000
v 0.432500 -0.277500 -0.350000
v 0.432500 -0.277500 0.000000
v -0.432500 -0.277500 0.000000
v -0.432500 -0.277500 -0.350000
v -0.432500 -0.277500 -0.350000
v -0.432500 -0.277500 0.000000
v -0.432500 0.277500 0.000000
v -0.432500 0.277500 -0.350000
v -0.432500 0.277500 -0.350000
v -0.432500 0.277500 0.000000
v 0.432500 0.277500 0.000000
v 0.432500 0.277500 -0.350000
v -0.432500 0.277500 -0.350000
v 0.432500 0.277500 -0.350000
v 0.432500 -0.277500 -0.350000
v -0.432500 -0.277500 -0.350000
v -0.432500 -0.277500 0.000000
v 0.432500 -0.277500 0.000000
v 0.432500 0.277500 0.000000
v -0.432500 0.277500 0.000000
vn 1.000 0.000 0.000
vn 1.000 0.000 0.000
vn 1.000 0.000 0.000
vn 1.000 0.000 0.000
vn 0.000 -1.000 0.000
vn 0.000 -1.000 0.000
vn 0.000 -1.000 0.000
vn 0.000 -1.000 0.000
vn -1.000 0.000 0.000
vn -1.000 0.000 0.000
vn -1.000 0.000 0.000
vn -1.000 0.000 0.000
vn 0.000 1.000 0.000
vn 0.000 1.000 0.000
vn 0.000 1.000 0.000
vn 0.000 1.000 0.000
vn 0.000 0.000 -1.000
vn 0.000 0.000 -1.000
vn 0.000 0.000 -1.000
vn 0.000 0.000 -1.000
vn 0.000 0.000 1.000
vn 0.000 0.000 1.000
vn 0.000 0.000 1.000
vn 0.000 0.000 1.000
vt 0.0000 0.0000 0
vt -0.3500 0.0000 0
vt -0.3500 -0.5550 0
vt 0.0000 -0.5550 0
vt 0.0000 0.8650 0
vt -0.3500 0.8650 0
vt -0.3500 0.0000 0
vt 0.0000 0.0000 0
vt 0.0000 -0.5550 0
vt 0.3500 -0.5550 0
vt 0.3500 0.0000 0
vt 0.0000 0.0000 0
vt 0.0000 0.0000 0
vt 0.3500 0.0000 0
vt 0.3500 0.8650 0
vt 0.0000 0.8650 0
vt -0.4325 0.2775 0
vt 0.4325 0.2775 0
vt 0.4325 -0.2775 0
vt -0.4325 -0.2775 0
vt -0.4325 -0.2775 0
vt 0.4325 -0.2775 0
vt 0.4325 0.2775 0
vt -0.4325 0.2775 0
f 25/25/25 27/27/27 28/28/28
f 27/27/27 25/25/25 26/26/26
f 31/31/31 29/29/29 30/30/30
f 29/29/29 31/31/31 32/32/32
f 35/35/35 33/33/33 34/34/34
f 33/33/33 35/35/35 36/36/36
f 39/39/39 37/37/37 38/38/38
f 37/37/37 39/39/39 40/40/40
f 41/41/41 43/43/43 44/44/44
f 43/43/43 41/41/41 42/42/42
f 45/45/45 47/47/47 48/48/48
f 47/47/47 45/45/45 46/46/46
g body_3
v 0.127500 -0.198000 0.495000
v 0.127500 -0.198000 0.660000
v 0.127500 -0.413000 0.660000
v 0.127500 -0.413000 0.495000
v -0.012500 -0.198000 0.495000
v 0.127500 -0.198000 0.495000
v 0.127500 -0.413000 0.495000
v -0.012500 -0.413000 0.495000
v -0.012500 -0.198000 0.660000
v -0.012500 -0.198000 0.495000
v -0.012500 -0.413000 0.495000
v -0.012500 -0.413000 0.660000
v 0.127500 -0.198000 0.660000
v -0.012500 -0.198000 0.660000
v -0.012500 -0.413000 0.660000
v 0.127500 -0.413000 0.660000
v -0.012500 -0.198000 0.660000
v 0.127500 -0.198000 0.660000
v 0.127500 -0.198000 0.495000
v -0.012500 -0.198000 0.495000
v -0.012500 -0.413000 0.495000
v 0.127500 -0.413000 0.495000
v 0.127500 -0.413000 0.660000
v -0.012500 -0.413000 0.660000
vn 1.000 0.000 0.000
vn 1.000 0.000 0.000
vn 1.000 0.000 0.000
vn 1.000 0.000 0.000
vn 0.000 0.000 -1.000
vn 0.000 0.000 -1.000
vn 0.000 0.000 -1.000
vn 0.000 0.000 -1.000
vn -1.000 0.000 0.000
vn -1.000 0.000 0.000
vn -1.000 0.000 0.000
vn -1.000 0.000 0.000
vn 0.000 0.000 1.000
vn 0.000 0.000 1.000
vn 0.000 0.000 1.000
vn 0.000 0.000 1.000
vn 0.000 1.000 0.000
vn 0.000 1.000 0.000
vn 0.000 1.000 0.000
vn 0.000 1.000 0.000
vn 0.000 -1.000 0.000
vn 0.000 -1.000 0.000
vn 0.000 -1.000 0.000
vn 0.000 -1.000 0.000
vt 0.1650 0.0000 0
vt 0.0000 0.0000 0
vt 0.0000 -0.2150 0
vt 0.1650 -0.2150 0
vt 0.0000 0.0000 0
vt -0.1400 0.0000 0
vt -0.1400 -0.2150 0
vt 0.0000 -0.2150 0
vt 0.0000 0.0000 0
vt -0.1650 0.0000 0
vt -0.1650 -0.2150 0
vt 0.0000 -0.2150 0
vt 0.1400 0.0000 0
vt 0.0000 0.0000 0
vt 0.0000 -0.2150 0
vt 0.1400 -0.2150 0
vt -0.6600 -0.0125 0
vt -0.6600 0.1275 0
vt -0.4950 0.1275 0
vt -0.4950 -0.0125 0
vt -0.4950 -0.0125 0
vt -0.4950 0.1275 0
vt -0.6600 0.1275 0
vt -0.6600 -0.0125 0
f 49/49/49 51/51/51 52/52/52
f 51/51/51 49/49/49 50/50/50
f 55/55/55 53/53/53 54/54/54
f 53/53/53 55/55/55 56/56/56
f 59/59/59 57/57/57 58/58/58
f 57/57/57 59/59/59 60/60/60
f 61/61/61 63/63/63 64/64/64
f 63/63/63 61/61/61 62/62/62
f 65/65/65 67/67/67 68/68/68
f 67/67/67 65/65/65 66/66/66
f 71/71/71 69/69/69 70/70/70
f 69/69/69 71/71/71 72/72/72
g body_4
v 0.387500 -0.228000 0.610000
v 0.387500 -0.228000 0.000000
v 0.387500 0.228000 0.000000
v 0.387500 0.228000 0.610000
v 0.387500 0.228000 0.610000
v 0.387500 0.228000 0.000000
v -0.387500 0.228000 0.000000
v -0.387500 0.228000 0.610000
v -0.387500 0.228000 0.610000
v -0.387500 0.228000 0.000000
v -0.387500 -0.228000 0.000000
v -0.387500 -0.228000 0.610000
v -0.387500 -0.228000 0.610000
v -0.387500 -0.228000 0.000000
v 0.387500 -0.228000 0.000000
v 0.387500 -0.228000 0.610000
v 0.387500 -0.228000 0.610000
v 0.387500 0.228000 0.610000
v -0.387500 0.228000 0.610000
v -0.387500 -0.228000 0.610000
v 0.387500 -0.228000 0.000000
v -0.387500 -0.228000 0.000000
v -0.387500 0.228000 0.000000
v 0.387500 0.228000 0.000000
vn 1.000 0.000 0.000
vn 1.000 0.000 0.000
vn 1.000 0.000 0.000
vn 1.000 0.000 0.000
vn 0.000 1.000 0.000
vn 0.000 1.000 0.000
vn 0.000 1.000 0.000
vn 0.000 1.000 0.000
vn -1.000 0.000 0.000
vn -1.000 0.000 0.000
vn -1.000 0.000 0.000
vn -1.000 0.000 0.000
vn 0.000 -1.000 0.000
vn 0.000 -1.000 0.000
vn 0.000 -1.000 0.000
vn 0.000 -1.000 0.000
vn 0.000 0.000 1.000
vn 0.000 0.000 1.000
vn 0.000 0.000 1.000
vn 0.000 0.000 1.000
vn 0.000 0.000 -1.000
vn 0.000 0.000 -1.000
vn 0.000 0.000 -1.000
vn 0.000 0.000 -1.000
vt 0.0000 -0.4560 0
vt -0.6100 -0.4560 0
vt -0.6100 0.0000 0
vt 0.0000 0.0000 0
vt 0.7750 0.0000 0
vt 0.7750 -0.6100 0
vt 0.0000 -0.6100 0
vt 0.0000 0.0000 0
vt 0.0000 0.0000 0
vt 0.6100 0.0000 0
vt 0.6100 -0.4560 0
vt 0.0000 -0.4560 0
vt 0.0000 0.0000 0
vt -0.6100 0.0000 0
vt -0.6100 0.7750 0
vt 0.0000 0.7750 0
vt 0.3875 -0.2280 0
vt 0.3875 0.2280 0
vt -0.3875 0.2280 0
vt -0.3875 -0.2280 0
vt 0.3875 -0.2280 0
vt -0.3875 -0.2280 0
vt -0.3875 0.2280 0
vt 0.3875 0.2280 0
f 73/73/73 75/75/75 76/76/76
f 75/75/75 73/73/73 74/74/74
f 77/77/77 79/79/79 80/80/80
f 79/79/79 77/77/77 78/78/78
f 81/81/81 83/83/83 84/84/84
f 83/83/83 81/81/81 82/82/82
f 87/87/87 85/85/85 86/86/86
f 85/85/85 87/87/87 88/88/88
f 89/89/89 91/91/91 92/92/92
f 91/91/91 89/89/89 90/90/90
f 95/95/95 93/93/93 94/94/94
f 93/93/93 95/95/95 96/96/96
